<?xml version="1.0" encoding="utf-8"?>
<!-- Generator: Adobe Illustrator 27.0.0, SVG Export Plug-In . SVG Version: 6.00 Build 0)  -->
<svg version="1.1" id="Layer_1" xmlns="http://www.w3.org/2000/svg" xmlns:xlink="http://www.w3.org/1999/xlink" x="0px" y="0px"
	 viewBox="0 0 800 800" style="enable-background:new 0 0 800 800;" xml:space="preserve">
<g>
	<g>
		<path d="M579.5,220.5c-48.4-48.4-112.6-75-181-75s-132.7,26.6-181,75s-75,112.6-75,181s26.6,132.7,75,181
			c48.4,48.4,112.6,75,181,75s132.7-26.6,181-75c48.4-48.4,75-112.6,75-181S627.9,268.8,579.5,220.5z M568.1,571.1
			c-45.3,45.3-105.5,70.2-169.6,70.2s-124.3-24.9-169.6-70.2c-45.3-45.3-70.2-105.5-70.2-169.6s24.9-124.3,70.2-169.6
			s105.5-70.2,169.6-70.2c64,0,124.3,24.9,169.6,70.2c45.3,45.3,70.2,105.5,70.2,169.6S613.4,525.8,568.1,571.1z"/>
	</g>
</g>
<g>
	<g>
		<path d="M583.4,328c-37-23.1-78.9-39.3-124.4-48.3c-36.3-7.2-75-9.8-115.1-7.7c-66.3,3.4-113.3,18.2-117.6,19.6
			c-8.7,2.3-15.9,7.8-20.3,15.5c-4.4,7.8-5.5,17.2-3,25.9s8.2,15.9,15.9,20.2c7.8,4.4,16.9,5.3,25.7,2.8
			c34.3-10,70.7-14.3,121.9-14.3c16.9-0.1,42.6,2.1,65.6,5.7c47.7,7.4,85.4,19.8,118.5,39.2c5,2.9,10.4,4.4,15.9,4.4
			c1.1,0,2.1-0.1,3.2-0.2c15.2-1.6,26.9-11.9,30-26.3C602.9,349.8,596.7,335.8,583.4,328z M584,361.1c-1.6,7.5-7.7,12.7-15.9,13.6
			c-3.1,0.3-6.2-0.4-9.2-2.1c-35-20.4-74.5-33.5-124.2-41.2c-23.2-3.6-49.3-5.9-66.9-5.9c-0.4,0-0.8,0-1.2,0
			c-52.7,0-90.5,4.5-126.3,15c-4.6,1.3-9.3,0.8-13.3-1.4c-4-2.2-6.9-6-8.3-10.6c-1.3-4.6-0.8-9.3,1.5-13.4c2.3-4,6-6.8,10.5-7.9
			l0.5-0.2c0.5-0.2,48.1-15.6,114.1-19c38.6-1.9,75.9,0.6,110.9,7.5c43.5,8.6,83.5,24.2,118.8,46.2l0.2,0.1
			C582.4,346.2,585.7,353.2,584,361.1z"/>
	</g>
</g>
<g>
	<g>
		<path d="M548.3,418.6c-29.1-20.9-63.4-35.7-101.9-44.2c-30.8-6.8-64.4-9.5-99.8-8.1c-59,2.4-102.6,15.2-106,16.2
			c-11,3-18.5,11.6-20.4,23.6c-1.7,10.6,2.1,20.2,10.6,27.1c8.1,6.5,17.8,8.2,28.9,4.8c22.7-6.9,46.6-10.8,73-11.9
			c13.5-0.6,27.5,0,41,0.5c16.3,0.6,33.7,3,53.3,7.2c34.8,7.5,64.7,19,91.4,35.2c4.7,2.9,9.7,4.3,14.7,4.3c1.1,0,2.1-0.1,3.2-0.2
			c13.6-1.7,23.3-10.5,26.1-23.5C565.1,437.3,559.4,424.9,548.3,418.6z M546.6,446.3c-1.3,6.2-5.7,10-12.3,10.9
			c-2.4,0.3-4.9-0.3-7.5-1.9c-28.2-17.1-59.8-29.3-96.4-37.2c-20.5-4.4-38.8-6.9-56.1-7.5c-9.6-0.4-19.4-0.8-29.2-0.8
			c-4.4,0-8.7,0.1-13.1,0.3c-27.4,1.2-53.3,5.4-77,12.6c-6,1.8-10.2,1.3-14-1.9c-4.1-3.3-5.6-7.1-4.8-12c1.4-8.6,6.9-10.1,8.7-10.6
			l0.3-0.1c0.4-0.1,44.3-13.3,102.4-15.6c34-1.3,66.1,1.3,95.5,7.8c36.5,8,68.8,22.1,96.1,41.7l0.4,0.3l0.5,0.2
			C545.1,435.3,547.7,440.8,546.6,446.3z"/>
	</g>
</g>
<g>
	<g>
		<path d="M528.8,512.9c-1.7-6.6-6.1-12.1-12.3-15.7c-62.6-39.9-131.7-45.9-178.7-44c-48.5,2-83.2,12.5-87.5,13.8
			c-6.4,1.4-11.9,5.3-15.4,10.8c-3.6,5.6-4.7,12.6-3.1,19.1c3.4,13.8,16.5,22,30.5,18.8c21.7-4.8,41.2-7.9,59.7-9.5
			c26.3-2.3,50.2-2,72.9,1c35.1,4.7,67.3,15.7,95.7,32.9c4.4,2.7,9.3,4.1,14.2,4.1c2,0,4.1-0.2,6-0.7c6.4-1.6,11.9-5.7,15.3-11.5
			C529.5,526.2,530.5,519.4,528.8,512.9z M512,523.8c-1.3,2.1-3.1,3.6-5.4,4.1c-2.5,0.6-5.3,0.1-7.9-1.5
			c-30.3-18.4-64.6-30.2-101.9-35.1c-13.6-1.8-27.5-2.7-42-2.7c-11.1,0-22.6,0.5-34.5,1.6c-19.2,1.7-39.4,4.9-61.7,9.8
			c-5.4,1.2-9.9-1.6-11.2-6.9c-0.5-2.2-0.2-4.6,1.1-6.6c1.2-1.9,3.1-3.2,5.4-3.7l0.9-0.2c0.3-0.1,35.4-11.3,84.1-13.2
			c44.6-1.8,110.1,4,169,41.6l0.4,0.2c2.5,1.4,4.2,3.5,4.8,5.8C513.7,519.2,513.3,521.6,512,523.8z"/>
	</g>
</g>
</svg>
